<svg width="600" height="227" viewBox="0 0 600 227" fill="none" xmlns="http://www.w3.org/2000/svg">
<path d="M31.424 99.56H47.552C53.5253 99.56 58.7733 98.7493 63.296 97.128C67.8187 95.4213 71.36 92.9467 73.92 89.704C76.48 86.4613 77.76 82.5787 77.76 78.056C77.76 72.936 76.48 68.712 73.92 65.384C71.36 62.056 67.8187 59.5813 63.296 57.96C58.7733 56.2533 53.5253 55.4 47.552 55.4H17.728V145H49.472C56.128 145 61.9733 144.104 67.008 142.312C72.0427 140.52 75.9253 137.747 78.656 133.992C81.472 130.237 82.88 125.416 82.88 119.528C82.88 115.091 81.9413 111.293 80.064 108.136C78.272 104.979 75.7973 102.419 72.64 100.456C69.4827 98.408 65.8987 96.9147 61.888 95.976C57.9627 95.0373 53.824 94.568 49.472 94.568H31.424V104.552H47.808C50.112 104.552 52.2453 104.808 54.208 105.32C56.1707 105.747 57.8773 106.515 59.328 107.624C60.864 108.648 62.016 109.971 62.784 111.592C63.6373 113.128 64.064 115.005 64.064 117.224C64.064 120.296 63.3387 122.813 61.888 124.776C60.5227 126.739 58.6027 128.189 56.128 129.128C53.6533 129.981 50.88 130.408 47.808 130.408H36.032V69.992H45.888C49.8987 69.992 53.056 70.888 55.36 72.68C57.7493 74.472 58.944 77.0747 58.944 80.488C58.944 82.7067 58.3893 84.6267 57.28 86.248C56.256 87.8693 54.7627 89.1067 52.8 89.96C50.8373 90.8133 48.5333 91.24 45.888 91.24H31.424V99.56ZM124.718 146.28C131.801 146.28 137.859 144.915 142.894 142.184C148.014 139.368 152.11 135.187 155.182 129.64L140.718 125.16C139.011 127.976 136.835 130.109 134.19 131.56C131.63 132.925 128.515 133.608 124.846 133.608C121.603 133.608 118.83 132.883 116.526 131.432C114.222 129.981 112.473 127.891 111.278 125.16C110.169 122.429 109.614 119.101 109.614 115.176C109.699 111.08 110.297 107.667 111.406 104.936C112.601 102.12 114.265 100.029 116.398 98.664C118.617 97.2133 121.347 96.488 124.59 96.488C127.235 96.488 129.539 97.0853 131.502 98.28C133.465 99.4747 134.958 101.096 135.982 103.144C137.091 105.192 137.646 107.667 137.646 110.568C137.646 111.165 137.475 111.933 137.134 112.872C136.878 113.725 136.579 114.408 136.238 114.92L140.718 109.032H102.446V119.272H155.182C155.267 118.76 155.31 118.077 155.31 117.224C155.395 116.371 155.438 115.56 155.438 114.792C155.438 108.477 154.243 103.101 151.854 98.664C149.465 94.1413 145.966 90.728 141.358 88.424C136.835 86.0347 131.331 84.84 124.846 84.84C118.361 84.84 112.729 86.12 107.95 88.68C103.171 91.1547 99.4593 94.696 96.814 99.304C94.254 103.827 92.974 109.245 92.974 115.56C92.974 121.789 94.254 127.208 96.814 131.816C99.4593 136.339 103.171 139.88 107.95 142.44C112.729 145 118.318 146.28 124.718 146.28ZM254.982 107.368C254.982 102.589 254.299 98.536 252.934 95.208C251.654 91.7947 249.649 89.2347 246.918 87.528C244.187 85.736 240.646 84.84 236.294 84.84C232.283 84.84 228.699 85.6933 225.542 87.4C222.47 89.1067 219.867 91.624 217.734 94.952C216.454 91.624 214.406 89.1067 211.59 87.4C208.774 85.6933 205.19 84.84 200.838 84.84C196.913 84.84 193.542 85.6933 190.726 87.4C187.91 89.1067 185.649 91.5813 183.942 94.824V86.12H167.942V145H183.942V109.16C183.942 106.6 184.369 104.424 185.222 102.632C186.075 100.755 187.27 99.3893 188.806 98.536C190.342 97.5973 192.134 97.128 194.182 97.128C197.254 97.128 199.473 98.152 200.838 100.2C202.203 102.163 202.886 105.149 202.886 109.16V145H219.398V109.16C219.398 106.6 219.825 104.424 220.678 102.632C221.531 100.755 222.726 99.3893 224.262 98.536C225.798 97.5973 227.59 97.128 229.638 97.128C232.71 97.128 234.929 98.152 236.294 100.2C237.659 102.163 238.342 105.149 238.342 109.16V145H254.982V107.368ZM266.325 86.12V100.072H303.189V86.12H266.325ZM301.397 61.8L308.437 49.384C307.669 48.5307 306.602 47.6347 305.237 46.696C303.957 45.7573 302.378 44.9893 300.501 44.392C298.624 43.7093 296.362 43.368 293.717 43.368C289.28 43.368 285.525 44.2213 282.453 45.928C279.381 47.5493 277.077 49.896 275.541 52.968C274.005 56.04 273.237 59.8373 273.237 64.36V145H289.237V68.072C289.237 65.8533 289.493 64.0187 290.005 62.568C290.517 61.1173 291.2 60.0933 292.053 59.496C292.992 58.8133 294.101 58.472 295.381 58.472C296.405 58.472 297.429 58.728 298.453 59.24C299.562 59.6667 300.544 60.52 301.397 61.8ZM324.843 126.696C324.843 124.989 325.227 123.581 325.995 122.472C326.763 121.277 327.958 120.381 329.579 119.784C331.2 119.101 333.291 118.76 335.851 118.76C339.008 118.76 341.995 119.187 344.811 120.04C347.712 120.893 350.315 122.173 352.619 123.88V116.2C351.766 115.176 350.358 114.109 348.395 113C346.432 111.891 344 110.952 341.099 110.184C338.283 109.416 334.998 109.032 331.243 109.032C323.904 109.032 318.23 110.696 314.219 114.024C310.208 117.352 308.203 121.875 308.203 127.592C308.203 131.603 309.142 135.016 311.019 137.832C312.982 140.563 315.542 142.653 318.699 144.104C321.856 145.555 325.27 146.28 328.939 146.28C332.523 146.28 335.936 145.64 339.179 144.36C342.507 143.08 345.195 141.16 347.243 138.6C349.376 136.04 350.443 132.883 350.443 129.128L348.395 121.448C348.395 124.264 347.755 126.696 346.475 128.744C345.195 130.707 343.531 132.243 341.483 133.352C339.435 134.376 337.131 134.888 334.571 134.888C332.779 134.888 331.115 134.589 329.579 133.992C328.128 133.309 326.976 132.371 326.123 131.176C325.27 129.896 324.843 128.403 324.843 126.696ZM318.443 102.76C319.296 102.163 320.619 101.437 322.411 100.584C324.203 99.7307 326.336 99.0053 328.811 98.408C331.286 97.8107 333.888 97.512 336.619 97.512C338.411 97.512 340.032 97.6827 341.483 98.024C342.934 98.3653 344.171 98.92 345.195 99.688C346.304 100.456 347.115 101.437 347.627 102.632C348.139 103.741 348.395 105.107 348.395 106.728V145H364.395V103.272C364.395 99.2613 363.286 95.8907 361.067 93.16C358.848 90.344 355.776 88.2107 351.851 86.76C347.926 85.3093 343.446 84.584 338.411 84.584C332.95 84.584 328 85.352 323.563 86.888C319.126 88.3387 315.371 89.8747 312.299 91.496L318.443 102.76ZM396.073 86.12H379.817V145H396.073V86.12ZM413.353 103.4L420.905 89.32C419.71 87.784 418.132 86.632 416.169 85.864C414.292 85.096 412.286 84.712 410.153 84.712C407.081 84.712 404.094 85.8213 401.193 88.04C398.292 90.1733 395.945 93.0747 394.153 96.744C392.361 100.328 391.465 104.467 391.465 109.16L396.073 113.768C396.073 110.952 396.414 108.563 397.097 106.6C397.865 104.552 398.974 102.973 400.425 101.864C401.876 100.755 403.625 100.2 405.673 100.2C407.38 100.2 408.788 100.499 409.897 101.096C411.092 101.608 412.244 102.376 413.353 103.4ZM516.732 107.368C516.732 102.589 516.049 98.536 514.684 95.208C513.404 91.7947 511.399 89.2347 508.668 87.528C505.937 85.736 502.396 84.84 498.044 84.84C494.033 84.84 490.449 85.6933 487.292 87.4C484.22 89.1067 481.617 91.624 479.484 94.952C478.204 91.624 476.156 89.1067 473.34 87.4C470.524 85.6933 466.94 84.84 462.588 84.84C458.663 84.84 455.292 85.6933 452.476 87.4C449.66 89.1067 447.399 91.5813 445.692 94.824V86.12H429.692V145H445.692V109.16C445.692 106.6 446.119 104.424 446.972 102.632C447.825 100.755 449.02 99.3893 450.556 98.536C452.092 97.5973 453.884 97.128 455.932 97.128C459.004 97.128 461.223 98.152 462.588 100.2C463.953 102.163 464.636 105.149 464.636 109.16V145H481.148V109.16C481.148 106.6 481.575 104.424 482.428 102.632C483.281 100.755 484.476 99.3893 486.012 98.536C487.548 97.5973 489.34 97.128 491.388 97.128C494.46 97.128 496.679 98.152 498.044 100.2C499.409 102.163 500.092 105.149 500.092 109.16V145H516.732V107.368ZM544.843 126.696C544.843 124.989 545.227 123.581 545.995 122.472C546.763 121.277 547.958 120.381 549.579 119.784C551.2 119.101 553.291 118.76 555.851 118.76C559.008 118.76 561.995 119.187 564.811 120.04C567.712 120.893 570.315 122.173 572.619 123.88V116.2C571.766 115.176 570.358 114.109 568.395 113C566.432 111.891 564 110.952 561.099 110.184C558.283 109.416 554.998 109.032 551.243 109.032C543.904 109.032 538.23 110.696 534.219 114.024C530.208 117.352 528.203 121.875 528.203 127.592C528.203 131.603 529.142 135.016 531.019 137.832C532.982 140.563 535.542 142.653 538.699 144.104C541.856 145.555 545.27 146.28 548.939 146.28C552.523 146.28 555.936 145.64 559.179 144.36C562.507 143.08 565.195 141.16 567.243 138.6C569.376 136.04 570.443 132.883 570.443 129.128L568.395 121.448C568.395 124.264 567.755 126.696 566.475 128.744C565.195 130.707 563.531 132.243 561.483 133.352C559.435 134.376 557.131 134.888 554.571 134.888C552.779 134.888 551.115 134.589 549.579 133.992C548.128 133.309 546.976 132.371 546.123 131.176C545.27 129.896 544.843 128.403 544.843 126.696ZM538.443 102.76C539.296 102.163 540.619 101.437 542.411 100.584C544.203 99.7307 546.336 99.0053 548.811 98.408C551.286 97.8107 553.888 97.512 556.619 97.512C558.411 97.512 560.032 97.6827 561.483 98.024C562.934 98.3653 564.171 98.92 565.195 99.688C566.304 100.456 567.115 101.437 567.627 102.632C568.139 103.741 568.395 105.107 568.395 106.728V145H584.395V103.272C584.395 99.2613 583.286 95.8907 581.067 93.16C578.848 90.344 575.776 88.2107 571.851 86.76C567.926 85.3093 563.446 84.584 558.411 84.584C552.95 84.584 548 85.352 543.563 86.888C539.126 88.3387 535.371 89.8747 532.299 91.496L538.443 102.76ZM30.96 175V192.36L11.04 173.6V203H16.56V185.64L36.48 204.4V175H30.96ZM45.7634 197.28C45.7634 196.747 45.8834 196.307 46.1234 195.96C46.3634 195.587 46.7368 195.307 47.2434 195.12C47.7501 194.907 48.4034 194.8 49.2034 194.8C50.1901 194.8 51.1234 194.933 52.0034 195.2C52.9101 195.467 53.7234 195.867 54.4434 196.4V194C54.1768 193.68 53.7368 193.347 53.1234 193C52.5101 192.653 51.7501 192.36 50.8434 192.12C49.9634 191.88 48.9368 191.76 47.7634 191.76C45.4701 191.76 43.6968 192.28 42.4434 193.32C41.1901 194.36 40.5634 195.773 40.5634 197.56C40.5634 198.813 40.8568 199.88 41.4434 200.76C42.0568 201.613 42.8568 202.267 43.8434 202.72C44.8301 203.173 45.8968 203.4 47.0434 203.4C48.1634 203.4 49.2301 203.2 50.2434 202.8C51.2834 202.4 52.1234 201.8 52.7634 201C53.4301 200.2 53.7634 199.213 53.7634 198.04L53.1234 195.64C53.1234 196.52 52.9234 197.28 52.5234 197.92C52.1234 198.533 51.6034 199.013 50.9634 199.36C50.3234 199.68 49.6034 199.84 48.8034 199.84C48.2434 199.84 47.7234 199.747 47.2434 199.56C46.7901 199.347 46.4301 199.053 46.1634 198.68C45.8968 198.28 45.7634 197.813 45.7634 197.28ZM43.7634 189.8C44.0301 189.613 44.4434 189.387 45.0034 189.12C45.5634 188.853 46.2301 188.627 47.0034 188.44C47.7768 188.253 48.5901 188.16 49.4434 188.16C50.0034 188.16 50.5101 188.213 50.9634 188.32C51.4168 188.427 51.8034 188.6 52.1234 188.84C52.4701 189.08 52.7234 189.387 52.8834 189.76C53.0434 190.107 53.1234 190.533 53.1234 191.04V203H58.1234V189.96C58.1234 188.707 57.7768 187.653 57.0834 186.8C56.3901 185.92 55.4301 185.253 54.2034 184.8C52.9768 184.347 51.5768 184.12 50.0034 184.12C48.2968 184.12 46.7501 184.36 45.3634 184.84C43.9768 185.293 42.8034 185.773 41.8434 186.28L43.7634 189.8ZM60.5828 184.6V188.96H71.9428V184.6H60.5828ZM63.7428 178.2V203H68.7428V178.2H63.7428ZM80.0606 195.8V184.6H74.7006V196.36C74.7006 198.547 75.234 200.267 76.3006 201.52C77.394 202.773 79.034 203.4 81.2206 203.4C82.5273 203.4 83.634 203.133 84.5406 202.6C85.4473 202.04 86.194 201.24 86.7806 200.2V203H91.9406V184.6H86.7806V195.8C86.7806 196.573 86.6206 197.24 86.3006 197.8C86.0073 198.36 85.5806 198.8 85.0206 199.12C84.4873 199.413 83.8473 199.56 83.1006 199.56C82.034 199.56 81.2606 199.24 80.7806 198.6C80.3006 197.933 80.0606 197 80.0606 195.8ZM102.124 184.6H97.0444V203H102.124V184.6ZM107.524 190L109.884 185.6C109.511 185.12 109.018 184.76 108.404 184.52C107.818 184.28 107.191 184.16 106.524 184.16C105.564 184.16 104.631 184.507 103.724 185.2C102.818 185.867 102.084 186.773 101.524 187.92C100.964 189.04 100.684 190.333 100.684 191.8L102.124 193.24C102.124 192.36 102.231 191.613 102.444 191C102.684 190.36 103.031 189.867 103.484 189.52C103.938 189.173 104.484 189 105.124 189C105.658 189 106.098 189.093 106.444 189.28C106.818 189.44 107.178 189.68 107.524 190ZM116.31 197.28C116.31 196.747 116.43 196.307 116.67 195.96C116.91 195.587 117.284 195.307 117.79 195.12C118.297 194.907 118.95 194.8 119.75 194.8C120.737 194.8 121.67 194.933 122.55 195.2C123.457 195.467 124.27 195.867 124.99 196.4V194C124.724 193.68 124.284 193.347 123.67 193C123.057 192.653 122.297 192.36 121.39 192.12C120.51 191.88 119.484 191.76 118.31 191.76C116.017 191.76 114.244 192.28 112.99 193.32C111.737 194.36 111.11 195.773 111.11 197.56C111.11 198.813 111.404 199.88 111.99 200.76C112.604 201.613 113.404 202.267 114.39 202.72C115.377 203.173 116.444 203.4 117.59 203.4C118.71 203.4 119.777 203.2 120.79 202.8C121.83 202.4 122.67 201.8 123.31 201C123.977 200.2 124.31 199.213 124.31 198.04L123.67 195.64C123.67 196.52 123.47 197.28 123.07 197.92C122.67 198.533 122.15 199.013 121.51 199.36C120.87 199.68 120.15 199.84 119.35 199.84C118.79 199.84 118.27 199.747 117.79 199.56C117.337 199.347 116.977 199.053 116.71 198.68C116.444 198.28 116.31 197.813 116.31 197.28ZM114.31 189.8C114.577 189.613 114.99 189.387 115.55 189.12C116.11 188.853 116.777 188.627 117.55 188.44C118.324 188.253 119.137 188.16 119.99 188.16C120.55 188.16 121.057 188.213 121.51 188.32C121.964 188.427 122.35 188.6 122.67 188.84C123.017 189.08 123.27 189.387 123.43 189.76C123.59 190.107 123.67 190.533 123.67 191.04V203H128.67V189.96C128.67 188.707 128.324 187.653 127.63 186.8C126.937 185.92 125.977 185.253 124.75 184.8C123.524 184.347 122.124 184.12 120.55 184.12C118.844 184.12 117.297 184.36 115.91 184.84C114.524 185.293 113.35 185.773 112.39 186.28L114.31 189.8ZM133.49 171.8V203H138.69V171.8H133.49ZM157.514 194.96H173.994C174.048 194.667 174.074 194.4 174.074 194.16C174.074 193.92 174.074 193.72 174.074 193.56C174.074 191.613 173.701 189.947 172.954 188.56C172.208 187.173 171.114 186.107 169.674 185.36C168.261 184.587 166.541 184.2 164.514 184.2C162.674 184.2 161.061 184.52 159.674 185.16C158.288 185.8 157.181 186.693 156.354 187.84C155.528 188.987 154.981 190.32 154.714 191.84C154.661 192.16 154.621 192.48 154.594 192.8C154.568 193.12 154.554 193.453 154.554 193.8C154.554 195.64 154.941 197.293 155.714 198.76C156.514 200.2 157.661 201.333 159.154 202.16C160.648 202.987 162.421 203.4 164.474 203.4C166.181 203.4 167.621 203.187 168.794 202.76C169.994 202.333 171.008 201.733 171.834 200.96C172.661 200.16 173.381 199.24 173.994 198.2L169.474 196.8C169.154 197.333 168.754 197.8 168.274 198.2C167.794 198.6 167.248 198.907 166.634 199.12C166.021 199.333 165.314 199.44 164.514 199.44C163.608 199.44 162.794 199.253 162.074 198.88C161.354 198.48 160.781 197.867 160.354 197.04C159.954 196.187 159.754 195.107 159.754 193.8L159.834 192.76C159.834 191.747 160.034 190.867 160.434 190.12C160.834 189.373 161.381 188.813 162.074 188.44C162.768 188.04 163.554 187.84 164.434 187.84C165.288 187.84 165.994 188 166.554 188.32C167.114 188.64 167.554 189.093 167.874 189.68C168.194 190.267 168.408 190.96 168.514 191.76H157.514V194.96ZM171.274 175.56L167.154 173.6L161.154 180L164.074 181.56L171.274 175.56ZM193.894 193.8C193.894 192.76 194.134 191.84 194.614 191.04C195.094 190.24 195.734 189.613 196.534 189.16C197.361 188.68 198.267 188.44 199.254 188.44C200.001 188.44 200.747 188.56 201.494 188.8C202.241 189.04 202.921 189.387 203.534 189.84C204.174 190.267 204.654 190.773 204.974 191.36V186.04C204.334 185.48 203.494 185.04 202.454 184.72C201.441 184.373 200.254 184.2 198.894 184.2C196.947 184.2 195.187 184.6 193.614 185.4C192.067 186.2 190.841 187.32 189.934 188.76C189.054 190.2 188.614 191.88 188.614 193.8C188.614 195.693 189.054 197.373 189.934 198.84C190.841 200.28 192.067 201.4 193.614 202.2C195.187 203 196.947 203.4 198.894 203.4C200.254 203.4 201.441 203.24 202.454 202.92C203.494 202.573 204.334 202.107 204.974 201.52V196.2C204.654 196.787 204.187 197.307 203.574 197.76C202.987 198.187 202.321 198.533 201.574 198.8C200.827 199.04 200.054 199.16 199.254 199.16C198.267 199.16 197.361 198.933 196.534 198.48C195.734 198.027 195.094 197.4 194.614 196.6C194.134 195.8 193.894 194.867 193.894 193.8ZM214.904 195.8V184.6H209.544V196.36C209.544 198.547 210.078 200.267 211.144 201.52C212.238 202.773 213.878 203.4 216.064 203.4C217.371 203.4 218.478 203.133 219.384 202.6C220.291 202.04 221.038 201.24 221.624 200.2V203H226.784V184.6H221.624V195.8C221.624 196.573 221.464 197.24 221.144 197.8C220.851 198.36 220.424 198.8 219.864 199.12C219.331 199.413 218.691 199.56 217.944 199.56C216.878 199.56 216.104 199.24 215.624 198.6C215.144 197.933 214.904 197 214.904 195.8ZM231.648 177.48C231.648 178.307 231.955 179 232.568 179.56C233.181 180.12 233.915 180.4 234.768 180.4C235.621 180.4 236.341 180.12 236.928 179.56C237.541 179 237.848 178.307 237.848 177.48C237.848 176.627 237.541 175.933 236.928 175.4C236.341 174.84 235.621 174.56 234.768 174.56C233.915 174.56 233.181 174.84 232.568 175.4C231.955 175.933 231.648 176.627 231.648 177.48ZM232.208 184.6V203H237.248V184.6H232.208ZM256.628 171.8V203H261.828V171.8H256.628ZM241.507 193.8C241.507 195.827 241.921 197.56 242.748 199C243.574 200.44 244.668 201.533 246.028 202.28C247.388 203.027 248.828 203.4 250.348 203.4C251.894 203.4 253.254 203.013 254.428 202.24C255.628 201.467 256.561 200.36 257.228 198.92C257.921 197.48 258.268 195.773 258.268 193.8C258.268 191.8 257.921 190.093 257.228 188.68C256.561 187.24 255.628 186.133 254.428 185.36C253.254 184.587 251.894 184.2 250.348 184.2C248.828 184.2 247.388 184.573 246.028 185.32C244.668 186.067 243.574 187.16 242.748 188.6C241.921 190.013 241.507 191.747 241.507 193.8ZM246.868 193.8C246.868 192.707 247.094 191.76 247.548 190.96C248.001 190.16 248.614 189.547 249.388 189.12C250.161 188.693 250.988 188.48 251.868 188.48C252.641 188.48 253.388 188.693 254.108 189.12C254.854 189.52 255.454 190.12 255.908 190.92C256.388 191.72 256.628 192.68 256.628 193.8C256.628 194.92 256.388 195.88 255.908 196.68C255.454 197.48 254.854 198.093 254.108 198.52C253.388 198.92 252.641 199.12 251.868 199.12C250.988 199.12 250.161 198.907 249.388 198.48C248.614 198.053 248.001 197.44 247.548 196.64C247.094 195.84 246.868 194.893 246.868 193.8ZM270.49 197.28C270.49 196.747 270.61 196.307 270.85 195.96C271.09 195.587 271.463 195.307 271.97 195.12C272.477 194.907 273.13 194.8 273.93 194.8C274.917 194.8 275.85 194.933 276.73 195.2C277.637 195.467 278.45 195.867 279.17 196.4V194C278.903 193.68 278.463 193.347 277.85 193C277.237 192.653 276.477 192.36 275.57 192.12C274.69 191.88 273.663 191.76 272.49 191.76C270.197 191.76 268.423 192.28 267.17 193.32C265.917 194.36 265.29 195.773 265.29 197.56C265.29 198.813 265.583 199.88 266.17 200.76C266.783 201.613 267.583 202.267 268.57 202.72C269.557 203.173 270.623 203.4 271.77 203.4C272.89 203.4 273.957 203.2 274.97 202.8C276.01 202.4 276.85 201.8 277.49 201C278.157 200.2 278.49 199.213 278.49 198.04L277.85 195.64C277.85 196.52 277.65 197.28 277.25 197.92C276.85 198.533 276.33 199.013 275.69 199.36C275.05 199.68 274.33 199.84 273.53 199.84C272.97 199.84 272.45 199.747 271.97 199.56C271.517 199.347 271.157 199.053 270.89 198.68C270.623 198.28 270.49 197.813 270.49 197.28ZM268.49 189.8C268.757 189.613 269.17 189.387 269.73 189.12C270.29 188.853 270.957 188.627 271.73 188.44C272.503 188.253 273.317 188.16 274.17 188.16C274.73 188.16 275.237 188.213 275.69 188.32C276.143 188.427 276.53 188.6 276.85 188.84C277.197 189.08 277.45 189.387 277.61 189.76C277.77 190.107 277.85 190.533 277.85 191.04V203H282.85V189.96C282.85 188.707 282.503 187.653 281.81 186.8C281.117 185.92 280.157 185.253 278.93 184.8C277.703 184.347 276.303 184.12 274.73 184.12C273.023 184.12 271.477 184.36 270.09 184.84C268.703 185.293 267.53 185.773 266.57 186.28L268.49 189.8ZM292.749 184.6H287.669V203H292.749V184.6ZM298.149 190L300.509 185.6C300.136 185.12 299.643 184.76 299.029 184.52C298.443 184.28 297.816 184.16 297.149 184.16C296.189 184.16 295.256 184.507 294.349 185.2C293.443 185.867 292.709 186.773 292.149 187.92C291.589 189.04 291.309 190.333 291.309 191.8L292.749 193.24C292.749 192.36 292.856 191.613 293.069 191C293.309 190.36 293.656 189.867 294.109 189.52C294.563 189.173 295.109 189 295.749 189C296.283 189 296.723 189.093 297.069 189.28C297.443 189.44 297.803 189.68 298.149 190ZM329.128 171.8V203H334.328V171.8H329.128ZM314.007 193.8C314.007 195.827 314.421 197.56 315.248 199C316.074 200.44 317.168 201.533 318.528 202.28C319.888 203.027 321.328 203.4 322.848 203.4C324.394 203.4 325.754 203.013 326.928 202.24C328.128 201.467 329.061 200.36 329.728 198.92C330.421 197.48 330.768 195.773 330.768 193.8C330.768 191.8 330.421 190.093 329.728 188.68C329.061 187.24 328.128 186.133 326.928 185.36C325.754 184.587 324.394 184.2 322.848 184.2C321.328 184.2 319.888 184.573 318.528 185.32C317.168 186.067 316.074 187.16 315.248 188.6C314.421 190.013 314.007 191.747 314.007 193.8ZM319.368 193.8C319.368 192.707 319.594 191.76 320.048 190.96C320.501 190.16 321.114 189.547 321.888 189.12C322.661 188.693 323.488 188.48 324.368 188.48C325.141 188.48 325.888 188.693 326.608 189.12C327.354 189.52 327.954 190.12 328.408 190.92C328.888 191.72 329.128 192.68 329.128 193.8C329.128 194.92 328.888 195.88 328.408 196.68C327.954 197.48 327.354 198.093 326.608 198.52C325.888 198.92 325.141 199.12 324.368 199.12C323.488 199.12 322.661 198.907 321.888 198.48C321.114 198.053 320.501 197.44 320.048 196.64C319.594 195.84 319.368 194.893 319.368 193.8ZM347.99 203.4C350.203 203.4 352.097 202.973 353.67 202.12C355.27 201.24 356.55 199.933 357.51 198.2L352.99 196.8C352.457 197.68 351.777 198.347 350.95 198.8C350.15 199.227 349.177 199.44 348.03 199.44C347.017 199.44 346.15 199.213 345.43 198.76C344.71 198.307 344.163 197.653 343.79 196.8C343.443 195.947 343.27 194.907 343.27 193.68C343.297 192.4 343.483 191.333 343.83 190.48C344.203 189.6 344.723 188.947 345.39 188.52C346.083 188.067 346.937 187.84 347.95 187.84C348.777 187.84 349.497 188.027 350.11 188.4C350.723 188.773 351.19 189.28 351.51 189.92C351.857 190.56 352.03 191.333 352.03 192.24C352.03 192.427 351.977 192.667 351.87 192.96C351.79 193.227 351.697 193.44 351.59 193.6L352.99 191.76H341.03V194.96H357.51C357.537 194.8 357.55 194.587 357.55 194.32C357.577 194.053 357.59 193.8 357.59 193.56C357.59 191.587 357.217 189.907 356.47 188.52C355.723 187.107 354.63 186.04 353.19 185.32C351.777 184.573 350.057 184.2 348.03 184.2C346.003 184.2 344.243 184.6 342.75 185.4C341.257 186.173 340.097 187.28 339.27 188.72C338.47 190.133 338.07 191.827 338.07 193.8C338.07 195.747 338.47 197.44 339.27 198.88C340.097 200.293 341.257 201.4 342.75 202.2C344.243 203 345.99 203.4 347.99 203.4ZM370.85 184.6L380.93 204.92L391.01 184.6H385.45L380.93 195.68L376.41 184.6H370.85ZM391.664 193.8C391.664 195.693 392.104 197.373 392.984 198.84C393.89 200.28 395.104 201.4 396.624 202.2C398.17 203 399.917 203.4 401.864 203.4C403.81 203.4 405.544 203 407.064 202.2C408.61 201.4 409.824 200.28 410.704 198.84C411.61 197.373 412.064 195.693 412.064 193.8C412.064 191.88 411.61 190.2 410.704 188.76C409.824 187.32 408.61 186.2 407.064 185.4C405.544 184.6 403.81 184.2 401.864 184.2C399.917 184.2 398.17 184.6 396.624 185.4C395.104 186.2 393.89 187.32 392.984 188.76C392.104 190.2 391.664 191.88 391.664 193.8ZM396.944 193.8C396.944 192.76 397.157 191.84 397.584 191.04C398.037 190.24 398.637 189.627 399.384 189.2C400.13 188.773 400.957 188.56 401.864 188.56C402.77 188.56 403.597 188.773 404.344 189.2C405.09 189.627 405.677 190.24 406.104 191.04C406.557 191.84 406.784 192.76 406.784 193.8C406.784 194.84 406.557 195.76 406.104 196.56C405.677 197.333 405.09 197.947 404.344 198.4C403.597 198.827 402.77 199.04 401.864 199.04C400.957 199.04 400.13 198.827 399.384 198.4C398.637 197.947 398.037 197.333 397.584 196.56C397.157 195.76 396.944 194.84 396.944 193.8ZM419.871 193.8C419.871 192.76 420.111 191.84 420.591 191.04C421.071 190.24 421.711 189.613 422.511 189.16C423.337 188.68 424.244 188.44 425.231 188.44C425.977 188.44 426.724 188.56 427.471 188.8C428.217 189.04 428.897 189.387 429.511 189.84C430.151 190.267 430.631 190.773 430.951 191.36V186.04C430.311 185.48 429.471 185.04 428.431 184.72C427.417 184.373 426.231 184.2 424.871 184.2C422.924 184.2 421.164 184.6 419.591 185.4C418.044 186.2 416.817 187.32 415.911 188.76C415.031 190.2 414.591 191.88 414.591 193.8C414.591 195.693 415.031 197.373 415.911 198.84C416.817 200.28 418.044 201.4 419.591 202.2C421.164 203 422.924 203.4 424.871 203.4C426.231 203.4 427.417 203.24 428.431 202.92C429.471 202.573 430.311 202.107 430.951 201.52V196.2C430.631 196.787 430.164 197.307 429.551 197.76C428.964 198.187 428.297 198.533 427.551 198.8C426.804 199.04 426.031 199.16 425.231 199.16C424.244 199.16 423.337 198.933 422.511 198.48C421.711 198.027 421.071 197.4 420.591 196.6C420.111 195.8 419.871 194.867 419.871 193.8ZM437.241 194.96H453.721C453.774 194.667 453.801 194.4 453.801 194.16C453.801 193.92 453.801 193.72 453.801 193.56C453.801 191.613 453.428 189.947 452.681 188.56C451.934 187.173 450.841 186.107 449.401 185.36C447.988 184.587 446.268 184.2 444.241 184.2C442.401 184.2 440.788 184.52 439.401 185.16C438.014 185.8 436.908 186.693 436.081 187.84C435.254 188.987 434.708 190.32 434.441 191.84C434.388 192.16 434.348 192.48 434.321 192.8C434.294 193.12 434.281 193.453 434.281 193.8C434.281 195.64 434.668 197.293 435.441 198.76C436.241 200.2 437.388 201.333 438.881 202.16C440.374 202.987 442.148 203.4 444.201 203.4C445.908 203.4 447.348 203.187 448.521 202.76C449.721 202.333 450.734 201.733 451.561 200.96C452.388 200.16 453.108 199.24 453.721 198.2L449.201 196.8C448.881 197.333 448.481 197.8 448.001 198.2C447.521 198.6 446.974 198.907 446.361 199.12C445.748 199.333 445.041 199.44 444.241 199.44C443.334 199.44 442.521 199.253 441.801 198.88C441.081 198.48 440.508 197.867 440.081 197.04C439.681 196.187 439.481 195.107 439.481 193.8L439.561 192.76C439.561 191.747 439.761 190.867 440.161 190.12C440.561 189.373 441.108 188.813 441.801 188.44C442.494 188.04 443.281 187.84 444.161 187.84C445.014 187.84 445.721 188 446.281 188.32C446.841 188.64 447.281 189.093 447.601 189.68C447.921 190.267 448.134 190.96 448.241 191.76H437.241V194.96ZM444.241 178.24L448.121 181.8L451.681 179.32L444.241 173.72L436.841 179.32L440.361 181.8L444.241 178.24ZM458.188 200.64C458.188 201.493 458.495 202.24 459.108 202.88C459.748 203.52 460.535 203.84 461.468 203.84C462.428 203.84 463.215 203.52 463.828 202.88C464.442 202.24 464.748 201.493 464.748 200.64C464.748 199.733 464.442 198.973 463.828 198.36C463.215 197.72 462.428 197.4 461.468 197.4C460.535 197.4 459.748 197.72 459.108 198.36C458.495 198.973 458.188 199.733 458.188 200.64Z" fill="#9FE44D"/>
</svg>
